<svg xmlns="http://www.w3.org/2000/svg" viewBox="0 0 45 45">
  <g fill="#000" stroke="#fff" stroke-width="0.5">
    <!-- Tip -->
    <rect x="20" y="0" width="5" height="5"/>
    <!-- Head -->
    <rect x="15" y="5" width="5" height="5"/>
    <rect x="20" y="5" width="5" height="5"/>
    <rect x="25" y="5" width="5" height="5"/>
    <rect x="15" y="10" width="5" height="5"/>
    <rect x="20" y="10" width="5" height="5"/>
    <rect x="25" y="10" width="5" height="5"/>
    <!-- Sash (diagonal detail) -->
    <rect x="20" y="15" width="5" height="5"/>
    <!-- Body -->
    <rect x="15" y="20" width="5" height="5"/>
    <rect x="20" y="20" width="5" height="5"/>
    <rect x="25" y="20" width="5" height="5"/>
    <rect x="10" y="25" width="5" height="5"/>
    <rect x="15" y="25" width="5" height="5"/>
    <rect x="20" y="25" width="5" height="5"/>
    <rect x="25" y="25" width="5" height="5"/>
    <rect x="30" y="25" width="5" height="5"/>
    <!-- Base -->
    <rect x="10" y="30" width="5" height="5"/>
    <rect x="15" y="30" width="5" height="5"/>
    <rect x="20" y="30" width="5" height="5"/>
    <rect x="25" y="30" width="5" height="5"/>
    <rect x="30" y="30" width="5" height="5"/>
    <rect x="5" y="35" width="5" height="5"/>
    <rect x="10" y="35" width="5" height="5"/>
    <rect x="15" y="35" width="5" height="5"/>
    <rect x="20" y="35" width="5" height="5"/>
    <rect x="25" y="35" width="5" height="5"/>
    <rect x="30" y="35" width="5" height="5"/>
    <rect x="35" y="35" width="5" height="5"/>
  </g>
</svg>
