<svg xmlns="http://www.w3.org/2000/svg" viewBox="0 0 45 45">
  <!-- Bishop: Dolphin with mitre -->
  <g fill="#fff" stroke="#222" stroke-width="1.5" stroke-linejoin="round">
    <!-- Tail -->
    <path d="M8 32 L4 27 L10 28 Z"/>
    <path d="M8 32 L4 37 L10 36 Z"/>
    <!-- Body curve -->
    <path d="M10 32 Q15 35 22 33 Q30 30 34 24 Q37 19 35 14 Q33 10 28 9 Q24 8 22 10 Q18 13 16 18 Q12 25 10 32 Z"/>
    <!-- Dorsal fin -->
    <path d="M22 12 L20 5 L26 10" fill="#fff"/>
    <!-- Eye -->
    <circle cx="30" cy="16" r="2" fill="#222" stroke="none"/>
    <!-- Smile -->
    <path d="M34 20 Q36 18 36 16" fill="none" stroke="#222" stroke-width="1"/>
    <!-- Belly highlight -->
    <path d="M16 28 Q20 32 26 30" fill="none" stroke="#ccc" stroke-width="1"/>
    <!-- Bishop mitre hint -->
    <path d="M19 5 L22 1 L25 5" fill="#fff" stroke="#222" stroke-width="1"/>
    <circle cx="22" cy="1" r="1" fill="#222" stroke="none"/>
    <!-- Base -->
    <rect x="6" y="38" width="33" height="4" rx="2" fill="#fff"/>
    <line x1="6" y1="38" x2="39" y2="38" stroke="#222" stroke-width="1.5"/>
  </g>
</svg>
