<svg xmlns="http://www.w3.org/2000/svg" viewBox="0 0 45 45">
  <!-- Queen: Octopus with crown -->
  <g fill="#fff" stroke="#222" stroke-width="1.5" stroke-linejoin="round">
    <!-- Tentacles -->
    <path d="M8 24 Q4 28 3 33 Q2 36 4 37" fill="none" stroke="#222" stroke-width="1.8" stroke-linecap="round"/>
    <path d="M11 26 Q8 32 7 36 Q6 39 8 40" fill="none" stroke="#222" stroke-width="1.8" stroke-linecap="round"/>
    <path d="M16 28 Q14 34 13 37 Q12 40 14 41" fill="none" stroke="#222" stroke-width="1.8" stroke-linecap="round"/>
    <path d="M22 29 Q22 35 21 38 Q21 41 22 42" fill="none" stroke="#222" stroke-width="1.8" stroke-linecap="round"/>
    <path d="M28 28 Q30 34 31 37 Q32 40 30 41" fill="none" stroke="#222" stroke-width="1.8" stroke-linecap="round"/>
    <path d="M33 26 Q36 32 37 36 Q38 39 36 40" fill="none" stroke="#222" stroke-width="1.8" stroke-linecap="round"/>
    <path d="M36 24 Q40 28 41 33 Q42 36 40 37" fill="none" stroke="#222" stroke-width="1.8" stroke-linecap="round"/>
    <!-- Head/mantle -->
    <ellipse cx="22" cy="17" rx="14" ry="11" fill="#fff"/>
    <!-- Eyes -->
    <circle cx="16" cy="19" r="3" fill="#fff" stroke="#222" stroke-width="1.2"/>
    <circle cx="16" cy="19" r="1.5" fill="#222" stroke="none"/>
    <circle cx="28" cy="19" r="3" fill="#fff" stroke="#222" stroke-width="1.2"/>
    <circle cx="28" cy="19" r="1.5" fill="#222" stroke="none"/>
    <!-- Crown -->
    <path d="M14 8 L12 2 L17 5 L22 1 L27 5 L32 2 L30 8" fill="#fff" stroke="#222" stroke-width="1"/>
    <!-- Sucker dots on tentacles -->
    <circle cx="5" cy="32" r="0.8" fill="#ccc" stroke="none"/>
    <circle cx="8" cy="35" r="0.8" fill="#ccc" stroke="none"/>
    <circle cx="14" cy="36" r="0.8" fill="#ccc" stroke="none"/>
    <circle cx="22" cy="37" r="0.8" fill="#ccc" stroke="none"/>
    <circle cx="30" cy="36" r="0.8" fill="#ccc" stroke="none"/>
    <circle cx="36" cy="35" r="0.8" fill="#ccc" stroke="none"/>
    <circle cx="39" cy="32" r="0.8" fill="#ccc" stroke="none"/>
  </g>
</svg>
