<svg xmlns="http://www.w3.org/2000/svg" viewBox="0 0 45 45">
  <path fill="#fff" stroke="#000" stroke-width="2.5" stroke-linejoin="round" stroke-linecap="round" d="M10 37h25v4H10v-4zM12.5 37s-.5-4 0-7 2-5 2-5l2.5-5L15.5 13l4 4 3-5.5 3 5.5 4-4L28 20l2.5 5s1.5 2 2 5 0 7 0 7h-20zM10 11a2.5 2.5 0 1 1 5 0 2.5 2.5 0 0 1-5 0zm5-4a2.5 2.5 0 1 1 5 0 2.5 2.5 0 0 1-5 0zm5.5-2.5a2.5 2.5 0 1 1 5 0 2.5 2.5 0 0 1-5 0zM26 7a2.5 2.5 0 1 1 5 0 2.5 2.5 0 0 1-5 0zm5 4a2.5 2.5 0 1 1 5 0 2.5 2.5 0 0 1-5 0z"/>
</svg>
