<svg xmlns="http://www.w3.org/2000/svg" viewBox="0 0 45 45">
  <g fill="#e8dcc8" stroke="#2c1810" stroke-width="1.5" stroke-linecap="round" stroke-linejoin="round">
    <path d="M22.5 11.63V6M20 8h5" stroke-linejoin="miter"/>
    <path d="M22.5 25s4.5-7.5 3-10.5c0 0-1-2.5-3-2.5s-3 2.5-3 2.5c-1.5 3 3 10.5 3 10.5" stroke-linecap="butt" stroke-linejoin="miter"/>
    <path d="M12.5 37c5.5 3.5 14.5 3.5 20 0v-7s9-4.5 6-10.5c-4-6.5-13.5-3.5-16 4V27v-3.5c-2.5-7.5-12-10.5-16-4-3 6 6 10.5 6 10.5v7"/>
    <path d="M12.5 30c5.5-3 14.5-3 20 0M12.5 33.5c5.5-3 14.5-3 20 0M12.5 37c5.5-3 14.5-3 20 0" fill="none"/>
    <path d="M19 13l-1-2M26 13l1-2" fill="none" stroke-width="1"/>
    <path d="M16 34l-1 0M29 34l1 0" fill="none" stroke-width="1"/>
  </g>
</svg>
