<svg xmlns="http://www.w3.org/2000/svg" viewBox="0 0 45 45">
  <g fill="#e8dcc8" stroke="#2c1810" stroke-width="1.5" stroke-linecap="round" stroke-linejoin="round">
    <path d="M9 26c8.5-1.5 21-1.5 27 0l2.5-12.5L31 25l-3.5-12.5-5 8.5-5-8.5L14 25 6.5 13.5 9 26z" stroke-linecap="butt"/>
    <path d="M9 26c0 2 1.5 2 2.5 4 1 1.5 1 1 .5 3.5-1.5 1-1.5 2.5-1.5 2.5-1.5 1.5.5 2.5.5 2.5 6.5 1 16.5 1 23 0 0 0 1.5-1 0-2.5 0 0 .5-1.5-1-2.5-.5-2.5-.5-2 .5-3.5 1-2 2.5-2 2.5-4-8.5-1.5-18.5-1.5-27 0z" stroke-linecap="butt"/>
    <path d="M12 33.5c6-1 15-1 21 0M12.5 37.5c5.5-1 15.5-1 20 0" fill="none"/>
    <circle cx="6" cy="12" r="2"/>
    <circle cx="14" cy="9" r="2"/>
    <circle cx="22.5" cy="8" r="2"/>
    <circle cx="31" cy="9" r="2"/>
    <circle cx="39" cy="12" r="2"/>
    <path d="M6 12l2-4M14 9l1-4M22.5 8v-4M31 9l-1-4M39 12l-2-4" fill="none" stroke-width="1"/>
  </g>
</svg>
