<svg xmlns="http://www.w3.org/2000/svg" viewBox="0 0 45 45">
  <defs>
    <linearGradient id="bq" x1="0" y1="0" x2="0" y2="1">
      <stop offset="0%" stop-color="#555"/>
      <stop offset="100%" stop-color="#1a1a1a"/>
    </linearGradient>
  </defs>
  <g fill="url(#bq)" stroke="#000" stroke-width="1.5" stroke-linecap="round" stroke-linejoin="round">
    <circle cx="6" cy="12" r="2.5"/>
    <circle cx="14" cy="9" r="2.5"/>
    <circle cx="22.5" cy="8" r="2.5"/>
    <circle cx="31" cy="9" r="2.5"/>
    <circle cx="39" cy="12" r="2.5"/>
    <path d="M9 26c8.5-1.5 21-1.5 27 0l2.5-12.5L31 25l-3.5-12.5-5 8.5-5-8.5L14 25 6.5 13.5 9 26z" stroke-linecap="butt"/>
    <path d="M9 26c0 2 1.5 2 2.5 4 1 1.5 1 1 .5 3.5-1.5 1-1.5 2.5-1.5 2.5-1.5 1.5.5 2.5.5 2.5 6.5 1 16.5 1 23 0 0 0 1.5-1 0-2.5 0 0 .5-1.5-1-2.5-.5-2.5-.5-2 .5-3.5 1-2 2.5-2 2.5-4-8.5-1.5-18.5-1.5-27 0z" stroke-linecap="butt"/>
    <path d="M12 33.5c6-1 15-1 21 0" fill="none" stroke="#888"/>
    <path d="M12.5 37.5c5.5-1 15.5-1 20 0" fill="none" stroke="#888"/>
  </g>
</svg>
