<svg xmlns="http://www.w3.org/2000/svg" viewBox="0 0 45 45">
  <g fill="#3a3530" stroke="#b8945a" stroke-width="2" stroke-linecap="round" stroke-linejoin="round">
    <path d="M9 39h27v-3H9v3zM12.5 32l1.5-2.5h17l1.5 2.5H12.5zM12 36v-4h21v4H12z" stroke-linecap="butt"/>
    <path d="M14 29.5v-13h17v13H14z" stroke-linecap="butt" stroke-linejoin="miter"/>
    <path d="M14 16.5L11 14h23l-3 2.5H14z" stroke-linecap="butt" stroke-linejoin="miter"/>
    <path d="M11 14V9h4v2h5V9h5v2h5V9h4v5H11z" stroke-linecap="butt" stroke-linejoin="miter"/>
    <path d="M12 36v-4h21v4H12z" fill="none" stroke-linejoin="miter"/>
    <path d="M14 29.5v-13h17v13H14z" fill="none" stroke="#d4b87a" stroke-width="1" stroke-linejoin="miter"/>
  </g>
</svg>
